<?xml version="1.0" standalone="no"?>
<!DOCTYPE svg PUBLIC "-//W3C//DTD SVG 20010904//EN"
 "http://www.w3.org/TR/2001/REC-SVG-20010904/DTD/svg10.dtd">
<svg version="1.0" xmlns="http://www.w3.org/2000/svg"
 width="2200.000000pt" height="2200.000000pt" viewBox="0 0 2200.000000 2200.000000"
 preserveAspectRatio="xMidYMid meet">
<metadata>
Created by potrace 1.11, written by Peter Selinger 2001-2013
</metadata>
<g transform="translate(0.000000,2200.000000) scale(0.100000,-0.100000)"
fill="#000000" stroke="none">
<path d="M9406 17273 c-3 -3 -198 -7 -433 -8 -558 -4 -885 -13 -1038 -30 -16
-2 -57 -6 -90 -10 -33 -3 -107 -16 -165 -27 -571 -110 -855 -425 -1177 -1303
-63 -171 -191 -556 -253 -755 -23 -74 -52 -169 -65 -210 -27 -84 -90 -291
-110 -360 -11 -39 -67 -222 -327 -1080 -27 -91 -56 -185 -63 -210 -7 -25 -31
-103 -54 -175 -93 -303 -150 -493 -156 -528 -11 -56 -23 -61 -102 -44 -171 38
-336 51 -643 51 -229 1 -395 -8 -485 -24 -27 -5 -74 -11 -104 -15 -30 -3 -73
-10 -95 -15 -23 -4 -79 -16 -126 -25 -47 -9 -98 -20 -115 -25 -16 -5 -41 -11
-55 -14 -50 -8 -218 -58 -330 -98 -912 -321 -1671 -952 -2150 -1788 -82 -142
-183 -347 -230 -465 -68 -169 -180 -518 -193 -600 -2 -16 -9 -48 -15 -70 -6
-22 -13 -58 -16 -80 -3 -22 -10 -60 -15 -85 -10 -49 -29 -187 -36 -260 -2 -25
-7 -85 -12 -135 -11 -118 -10 -466 1 -580 5 -49 10 -103 11 -120 6 -78 30
-232 52 -345 14 -69 27 -136 30 -150 10 -51 83 -299 118 -400 156 -454 414
-903 731 -1272 108 -125 321 -342 429 -435 147 -127 445 -340 605 -432 209
-120 544 -270 760 -339 178 -56 218 -68 311 -87 9 -2 61 -13 115 -25 55 -12
124 -26 154 -30 30 -5 64 -11 75 -13 11 -3 51 -8 88 -12 37 -3 77 -8 87 -10
91 -17 506 -25 680 -12 420 32 832 125 1190 269 291 117 585 275 805 431 241
170 359 269 545 456 203 205 348 376 473 560 121 178 270 440 344 606 19 44
45 100 56 125 33 73 125 345 161 475 43 152 75 302 96 445 17 119 23 165 25
195 1 17 6 71 11 120 10 108 11 504 1 595 -4 36 -12 106 -17 155 -6 50 -12 99
-14 110 -2 11 -7 47 -12 80 -4 33 -8 62 -9 65 -1 3 -5 25 -9 50 -25 140 -82
349 -151 550 -236 691 -690 1336 -1263 1794 -287 229 -648 450 -860 526 -70
26 -84 48 -59 96 8 16 51 146 96 289 46 143 91 284 102 313 10 28 16 52 13 52
-4 0 -2 6 4 13 5 6 16 40 22 74 16 81 29 100 57 83 11 -8 28 -25 36 -40 16
-26 100 -119 268 -295 120 -126 122 -128 379 -404 63 -68 131 -140 150 -161
19 -21 73 -79 120 -130 96 -105 98 -107 235 -256 55 -60 120 -131 145 -158 25
-28 54 -60 65 -71 11 -12 56 -62 100 -111 44 -49 103 -114 131 -144 28 -30 66
-72 85 -94 19 -21 43 -48 54 -60 58 -63 166 -184 185 -206 39 -46 124 -143
135 -154 6 -6 62 -69 125 -141 63 -71 119 -135 125 -141 19 -21 71 -80 180
-204 177 -202 247 -283 295 -340 25 -29 50 -58 56 -64 13 -14 173 -200 359
-417 77 -90 144 -169 150 -175 5 -6 69 -80 140 -164 72 -84 164 -192 205 -240
41 -47 84 -97 95 -111 12 -13 73 -83 135 -154 63 -72 131 -148 150 -170 105
-120 378 -381 465 -446 158 -117 319 -187 482 -210 39 -5 82 -12 95 -16 13 -3
403 -6 867 -7 951 -3 863 6 875 -84 17 -116 136 -486 223 -692 39 -92 142
-298 176 -354 7 -11 27 -44 45 -72 17 -29 32 -56 32 -60 0 -10 163 -254 221
-330 186 -245 454 -522 676 -700 396 -317 800 -537 1273 -695 148 -49 400
-113 530 -134 19 -3 42 -8 50 -10 8 -2 34 -6 58 -9 93 -13 128 -17 152 -21 28
-4 164 -14 285 -21 93 -5 264 -5 350 1 166 10 242 15 265 20 14 2 44 7 68 10
100 12 128 16 142 20 8 2 31 7 50 10 128 20 419 95 561 144 350 120 674 280
942 465 49 34 98 68 111 76 114 78 305 237 431 359 356 346 583 654 815 1106
177 344 339 860 375 1195 3 30 8 66 10 80 2 14 7 52 9 85 3 33 9 92 13 130 10
94 10 457 0 570 -13 148 -17 185 -32 285 -2 14 -7 50 -10 80 -4 30 -9 58 -12
63 -3 5 -7 27 -9 49 -4 38 -53 244 -74 313 -78 250 -111 344 -177 500 -33 78
-142 296 -182 363 -17 29 -31 55 -31 57 0 6 -102 168 -164 260 -64 95 -223
299 -303 387 -79 88 -303 310 -378 375 -97 84 -307 241 -439 327 -278 182
-636 352 -961 456 -229 73 -597 149 -800 165 -44 4 -96 9 -115 12 -47 7 -498
7 -580 -1 -36 -3 -87 -8 -115 -11 -27 -3 -70 -8 -94 -11 -72 -7 -299 -49 -431
-79 -91 -21 -157 -39 -220 -60 -120 -42 -117 -42 -134 -4 -8 19 -93 210 -189
424 -97 215 -193 431 -215 480 -22 50 -58 130 -81 178 -22 49 -41 91 -41 92 0
2 -22 52 -50 110 -27 58 -50 108 -50 110 0 2 -13 32 -30 67 -28 60 -189 418
-327 727 -35 79 -75 166 -89 192 -28 56 -29 70 -10 112 8 18 27 66 42 107 14
41 41 116 59 165 18 50 53 146 78 215 25 69 50 142 57 162 6 21 15 40 19 42 7
5 786 19 841 15 65 -4 84 -1 97 17 7 9 10 20 8 25 -3 4 -7 52 -10 106 -3 54
-7 139 -10 188 -3 50 -8 171 -11 270 -3 99 -8 183 -13 188 -9 9 -3481 10
-3504 1 -25 -9 -97 -161 -97 -203 0 -126 159 -209 595 -311 98 -23 303 -69
330 -73 17 -3 73 -15 125 -27 52 -11 106 -22 120 -25 14 -2 77 -16 140 -30 63
-14 131 -28 150 -31 19 -3 38 -8 42 -10 4 -3 26 -7 50 -10 24 -4 50 -10 58
-14 8 -4 42 -11 75 -14 33 -4 68 -9 78 -12 21 -7 22 -36 1 -76 -17 -32 -69
-176 -180 -498 -36 -101 -69 -187 -74 -190 -5 -3 -784 -7 -1732 -8 -3825 -7
-5125 -11 -5170 -17 -44 -6 -48 -5 -53 18 -4 15 0 39 9 59 9 18 38 114 65 213
208 763 255 887 391 1026 90 92 222 152 380 174 25 3 52 8 60 10 19 5 144 14
275 21 114 6 1046 6 1086 0 52 -8 48 -57 63 753 1 56 -1 64 -21 72 -11 4 -24
5 -27 2z m4313 -3191 c7 -14 3 -33 -15 -73 -14 -30 -48 -115 -75 -189 -28 -74
-54 -144 -59 -155 -5 -11 -28 -72 -51 -135 -22 -63 -51 -142 -64 -175 -12 -33
-42 -112 -65 -175 -23 -63 -46 -124 -51 -135 -5 -11 -88 -234 -185 -495 -97
-261 -189 -509 -204 -550 -15 -41 -40 -109 -55 -150 -15 -41 -31 -84 -36 -95
-5 -11 -15 -38 -22 -60 -8 -22 -30 -83 -50 -135 -20 -52 -73 -194 -118 -315
-44 -121 -92 -247 -104 -280 -13 -33 -76 -202 -140 -375 -63 -173 -120 -324
-124 -335 -5 -11 -28 -72 -51 -135 -73 -200 -181 -494 -190 -515 -5 -11 -23
-56 -39 -100 -16 -44 -46 -125 -67 -180 -84 -225 -98 -264 -131 -365 -50 -147
-51 -150 -67 -150 -8 0 -27 17 -43 38 -31 42 -72 88 -223 252 -58 63 -128 139
-156 169 -69 77 -73 81 -129 142 -28 30 -102 110 -165 179 -63 69 -119 130
-125 136 -21 22 -181 197 -195 214 -14 16 -155 169 -231 251 -45 47 -199 217
-221 241 -9 10 -45 49 -80 87 -34 37 -101 109 -148 161 -47 51 -90 98 -95 104
-6 6 -60 65 -120 131 -60 66 -130 143 -156 170 -26 28 -58 62 -71 76 -13 14
-63 70 -113 124 -49 54 -115 126 -146 159 -79 85 -103 111 -194 211 -44 49
-93 102 -110 120 -16 17 -68 73 -115 125 -47 51 -96 106 -110 121 -14 15 -43
46 -65 70 -22 24 -69 76 -105 114 -58 64 -231 252 -290 316 -14 15 -43 47 -65
71 -63 69 -219 240 -230 252 -6 6 -87 94 -180 196 -94 102 -174 190 -180 196
-5 6 -47 51 -92 100 -44 49 -98 107 -120 130 -51 54 -196 213 -222 243 -78 90
-244 264 -294 309 -63 55 -44 77 53 64 30 -4 584 -7 1230 -5 646 1 2126 4
3288 6 1162 2 2115 7 2119 10 13 14 53 6 62 -11z m887 -415 c12 -38 29 -83 37
-100 9 -18 44 -97 80 -177 36 -80 79 -176 97 -215 18 -38 61 -135 97 -215 36
-80 76 -170 90 -200 14 -30 33 -73 43 -95 10 -22 29 -65 43 -95 14 -30 57
-127 97 -215 39 -88 82 -180 96 -204 32 -58 31 -78 -8 -99 -94 -50 -363 -245
-498 -361 -112 -96 -352 -341 -461 -471 -181 -216 -325 -432 -478 -717 -39
-73 -71 -135 -71 -137 0 -3 -13 -33 -29 -68 -161 -347 -291 -835 -326 -1213
-2 -27 -7 -84 -11 -125 -4 -41 -8 -116 -8 -167 -1 -50 -4 -94 -7 -97 -12 -12
-740 -9 -752 3 -8 8 -2 29 20 73 17 35 245 628 507 1318 262 690 483 1269 490
1285 8 17 92 235 186 485 338 892 362 955 370 975 5 11 39 99 75 195 36 96 72
191 80 210 25 60 126 331 139 374 7 23 19 60 25 84 10 35 16 43 33 40 16 -2
26 -19 44 -71z m2984 -1911 c52 -4 109 -9 125 -11 17 -3 53 -7 80 -10 516 -58
1087 -302 1515 -646 347 -279 638 -637 830 -1019 184 -368 296 -762 325 -1147
15 -187 11 -413 -10 -621 -6 -63 -9 -82 -21 -135 -3 -16 -7 -38 -9 -50 -7 -63
-52 -247 -86 -360 -127 -413 -325 -768 -633 -1135 -37 -44 -220 -225 -291
-287 -237 -208 -572 -418 -842 -526 -217 -87 -525 -176 -676 -195 -104 -12
-132 -16 -150 -20 -123 -23 -617 -23 -747 2 -23 4 -40 6 -144 20 -21 2 -42 6
-45 8 -4 3 -27 7 -51 11 -174 25 -552 154 -755 258 -328 167 -582 352 -835
608 -324 327 -583 752 -734 1204 -15 44 -32 90 -37 101 -6 12 -9 30 -7 40 3
18 17 18 283 16 838 -9 1056 -12 1425 -18 1034 -17 1388 -7 1580 46 125 35
194 89 232 180 32 76 42 194 24 273 -11 47 -79 226 -126 332 -10 22 -66 150
-125 285 -96 217 -439 982 -500 1115 -56 121 -95 207 -95 210 0 2 -20 46 -44
97 -24 51 -58 126 -75 167 -18 40 -47 105 -66 145 -18 39 -63 139 -100 221
-76 171 -96 214 -137 305 -17 36 -48 106 -70 155 -22 50 -55 119 -73 155 -40
77 -45 100 -25 111 34 18 348 82 467 94 32 3 69 8 83 10 14 3 63 7 110 11 47
3 86 7 87 8 5 4 262 -2 343 -8z m-12565 -71 c66 -4 128 -12 138 -17 22 -11 21
-17 -22 -138 -31 -88 -127 -382 -141 -435 -5 -16 -29 -95 -55 -175 -25 -80
-57 -179 -70 -220 -13 -41 -66 -212 -119 -380 -125 -394 -245 -779 -332 -1070
-48 -157 -86 -295 -105 -379 -14 -62 -18 -211 -8 -288 24 -184 204 -344 389
-346 227 -4 306 65 434 380 61 148 268 769 361 1083 17 58 87 284 164 530 34
107 64 202 66 210 2 8 18 58 34 110 16 52 48 156 71 230 23 74 55 176 70 225
37 117 94 309 109 363 13 48 35 55 79 24 15 -11 54 -34 87 -52 174 -94 333
-196 450 -289 207 -164 406 -362 535 -531 19 -25 37 -47 41 -50 7 -6 139 -201
186 -275 43 -69 153 -287 196 -389 88 -211 171 -490 192 -653 3 -18 9 -53 15
-77 5 -24 13 -82 16 -128 3 -45 9 -101 13 -123 8 -52 6 -389 -3 -480 -4 -38
-9 -90 -12 -115 -3 -39 -9 -77 -20 -130 -2 -8 -6 -35 -10 -60 -3 -25 -8 -48
-10 -51 -2 -3 -6 -21 -9 -40 -65 -376 -286 -857 -560 -1219 -105 -139 -117
-152 -275 -311 -347 -349 -710 -578 -1175 -742 -78 -27 -282 -86 -323 -93 -15
-3 -33 -7 -41 -10 -8 -2 -30 -7 -50 -10 -20 -3 -72 -11 -116 -19 -44 -8 -111
-17 -150 -20 -38 -4 -86 -9 -105 -11 -51 -5 -430 -5 -460 0 -14 2 -56 7 -95
11 -60 5 -191 24 -288 41 -26 4 -88 19 -202 48 -159 41 -410 137 -560 213
-246 125 -442 255 -645 428 -76 64 -320 314 -376 385 -342 428 -539 853 -644
1384 -29 152 -33 181 -47 336 -17 213 -1 618 31 728 2 9 7 40 11 67 7 58 78
349 101 415 19 54 19 54 79 203 182 450 481 864 855 1183 314 267 664 464
1047 588 114 36 275 81 328 90 17 3 41 7 55 10 14 3 45 8 70 11 25 3 56 8 70
11 14 2 34 6 46 8 11 2 72 7 135 11 63 4 115 8 117 10 5 4 320 -2 437 -10z
m10690 -483 c10 -26 46 -110 80 -187 69 -153 278 -617 318 -705 14 -30 89
-197 167 -370 78 -173 150 -333 160 -355 10 -22 93 -206 185 -410 92 -203 180
-394 197 -423 16 -29 28 -58 26 -64 -4 -10 -97 -12 -404 -9 -219 1 -793 4
-1274 6 -481 2 -879 4 -884 4 -7 1 -6 43 10 241 52 689 371 1390 858 1888 176
180 501 447 530 436 8 -3 22 -26 31 -52z"/>
<path d="M10900 5160 c0 -5 -9 -7 -20 -5 -12 2 -20 -2 -20 -10 0 -9 -7 -11
-22 -7 -16 4 -19 2 -13 -8 6 -10 2 -12 -18 -8 -19 4 -24 1 -19 -10 4 -11 1
-14 -11 -9 -9 3 -19 2 -22 -3 -4 -6 -15 -10 -26 -10 -11 0 -17 -4 -14 -10 3
-5 -3 -10 -14 -10 -12 0 -21 -4 -21 -9 0 -6 -9 -8 -19 -6 -11 2 -22 -3 -25
-11 -3 -8 -12 -11 -22 -7 -12 4 -15 3 -10 -5 5 -8 0 -12 -13 -12 -12 0 -21 -5
-21 -11 0 -6 -9 -9 -20 -6 -11 3 -20 1 -20 -4 0 -5 -9 -9 -20 -9 -11 0 -20 -4
-20 -10 0 -5 -9 -10 -21 -10 -11 0 -18 -4 -14 -9 3 -6 -4 -8 -15 -6 -11 2 -20
0 -20 -6 0 -5 -9 -9 -20 -9 -11 0 -20 -4 -20 -9 0 -5 -18 -12 -40 -16 -22 -4
-40 -11 -40 -16 0 -5 -9 -9 -20 -9 -11 0 -20 -4 -20 -9 0 -6 -9 -8 -20 -6 -11
2 -18 0 -15 -6 4 -5 -3 -9 -14 -9 -12 0 -21 -5 -21 -11 0 -6 -9 -8 -20 -4 -11
4 -20 2 -20 -4 0 -6 -9 -11 -20 -11 -11 0 -20 -4 -20 -10 0 -5 -9 -10 -19 -10
-11 0 -22 -4 -26 -10 -3 -5 -12 -7 -20 -3 -8 3 -15 1 -15 -5 0 -9 -55 -27 -72
-23 -5 0 -8 -4 -8 -9 0 -6 -9 -10 -19 -10 -11 0 -22 -4 -26 -10 -3 -5 -12 -7
-20 -3 -8 3 -15 1 -15 -5 0 -9 -55 -27 -72 -23 -5 0 -8 -4 -8 -9 0 -6 -9 -10
-19 -10 -11 0 -22 -4 -26 -10 -3 -5 -12 -7 -20 -3 -8 3 -15 1 -15 -5 0 -5 -17
-13 -37 -17 -21 -4 -44 -12 -51 -17 -7 -6 -15 -8 -18 -5 -4 3 -13 0 -20 -8 -8
-8 -21 -12 -29 -9 -8 4 -15 1 -15 -5 0 -6 -7 -8 -15 -5 -8 4 -15 1 -15 -5 0
-6 -12 -11 -26 -11 -14 0 -22 -4 -19 -10 3 -6 -1 -7 -10 -4 -8 4 -21 2 -28 -4
-6 -5 -20 -8 -29 -7 -10 2 -18 -1 -18 -6 0 -5 -9 -9 -20 -9 -11 0 -20 -5 -20
-11 0 -5 -5 -7 -10 -4 -6 4 -18 1 -27 -7 -14 -11 -16 -11 -8 2 8 13 7 13 -8 1
-9 -7 -17 -10 -17 -6 0 4 -6 3 -12 -2 -14 -11 -68 -27 -80 -25 -5 1 -8 -2 -8
-7 0 -6 -9 -8 -20 -6 -11 2 -20 0 -20 -6 0 -5 -11 -9 -24 -9 -14 0 -28 -5 -31
-10 -4 -6 -11 -8 -16 -4 -5 3 -15 1 -22 -4 -7 -5 -20 -8 -30 -7 -9 2 -14 -1
-11 -7 3 -5 -2 -9 -12 -7 -18 2 -35 -3 -79 -21 -11 -5 604 -9 1382 -9 924 -1
1404 2 1408 9 3 6 -1 10 -10 10 -9 0 -13 5 -10 10 3 6 -1 10 -10 10 -10 0 -13
5 -9 12 5 7 2 9 -8 5 -11 -4 -18 1 -21 14 -3 10 -13 19 -22 19 -9 0 -13 5 -10
10 3 6 -1 10 -10 10 -9 0 -13 5 -10 10 3 6 -1 10 -9 10 -8 0 -17 9 -21 19 -4
13 -12 18 -22 14 -11 -4 -14 -2 -9 5 4 7 1 12 -9 12 -9 0 -13 5 -10 10 3 6 -2
10 -11 10 -10 0 -14 3 -11 7 4 3 -7 16 -23 28 -16 12 -27 25 -23 28 3 4 -1 7
-11 7 -9 0 -14 5 -11 10 3 6 -1 10 -9 10 -8 0 -20 9 -26 20 -6 11 -16 17 -22
14 -7 -4 -8 -3 -4 4 4 7 2 12 -4 12 -6 0 -8 5 -5 10 3 6 -1 10 -10 10 -9 0
-13 4 -10 10 4 6 -1 7 -11 3 -13 -5 -16 -3 -11 10 4 12 2 14 -10 10 -11 -4
-14 -2 -9 5 4 7 1 12 -9 12 -9 0 -13 5 -10 10 3 6 1 10 -5 10 -6 0 -8 5 -5 10
4 6 3 10 -2 9 -12 -3 -43 12 -40 20 2 3 -4 14 -15 24 -10 9 -18 15 -18 12 0
-3 -6 0 -14 7 -7 7 -11 19 -8 27 3 9 1 12 -6 7 -7 -4 -12 -2 -12 4 0 6 -4 9
-9 6 -5 -3 -11 3 -14 14 -3 11 -12 20 -21 20 -10 0 -13 5 -9 17 4 11 3 14 -5
9 -7 -4 -12 -1 -12 9 0 9 -4 13 -10 10 -5 -3 -10 -1 -10 5 0 6 -5 8 -12 4 -7
-5 -9 0 -6 14 4 15 2 19 -9 15 -9 -4 -16 2 -20 16 -3 11 -9 18 -14 15 -5 -3
-9 2 -9 10 0 14 -11 20 -32 17 -4 0 -5 7 -3 17 2 12 -3 18 -16 19 -10 1 -19
-2 -19 -7z"/>
</g>
</svg>
